<svg version="1.1" id="Capa_1" xmlns="http://www.w3.org/2000/svg" x="0" y="0" viewBox="0 0 46.747 46.747" xml:space="preserve"><path fill="#fff" d="M39.433 6.419l-.911-.863-.031.053C34.257 1.997 28.946 0 23.373 0c-3.031 0-5.985.59-8.799 1.738l-.013-.013-.631.278C7.046 5.05 2.024 11.249.495 18.584l-.162.778.019.009A23.557 23.557 0 000 23.374c0 6.887 2.997 13.319 8.238 17.78l-.008.02.602.479c4.184 3.332 9.212 5.093 14.541 5.093a23.27 23.27 0 008.297-1.543l.645-.245v-.029c7.79-3.124 13.112-10.078 14.188-18.498l.056.02.1-1.294c.041-.542.089-1.155.089-1.782-.002-6.465-2.599-12.486-7.315-16.956zm5.313 16.955c0 .119-.002.238-.005.356a30.074 30.074 0 00-16.168-.313l-.005-.014-.006.002a60.024 60.024 0 00-1.641-3.982l.009-.004-.008-.016A29.973 29.973 0 0038.93 8.746c3.76 3.982 5.816 9.13 5.816 14.628zM37.435 7.335a27.963 27.963 0 01-11.402 10.253A59.851 59.851 0 0016.073 3.3a21.155 21.155 0 017.3-1.3c5.2 0 10.153 1.901 14.062 5.335zM14.112 4.122A57.879 57.879 0 0124.227 18.42a27.841 27.841 0 01-10.543 2.055c-3.835 0-7.549-.762-11.051-2.265C4.158 12.069 8.381 6.884 14.112 4.122zM2 23.374a21.5 21.5 0 01.239-3.168 29.814 29.814 0 0011.443 2.268c3.94 0 7.764-.763 11.387-2.249a57.68 57.68 0 011.56 3.774A29.987 29.987 0 009.105 39.267C4.576 35.206 2 29.483 2 23.374zm8.694 17.189a28.012 28.012 0 0116.617-14.694 57.74 57.74 0 012.999 17.7 21.203 21.203 0 01-6.937 1.177 21.106 21.106 0 01-12.679-4.183zm21.588 2.222a59.66 59.66 0 00-3.055-17.448 28.178 28.178 0 0115.334.453c-.839 7.607-5.441 13.963-12.279 16.995z"/></svg>